HIERARCHY
ROOT Hips
{
 OFFSET 0.000000 0.000000 0.000000
 CHANNELS 6 Xposition Yposition Zposition Yrotation Xrotation Zrotation
 JOINT Chest
 {
  OFFSET 0.000000 9.585900 0.002600
  CHANNELS 3 Yrotation Xrotation Zrotation
  JOINT Chest2
  {
   OFFSET 0.000000 9.601200 -0.005300
   CHANNELS 3 Yrotation Xrotation Zrotation
   JOINT Chest3
   {
    OFFSET 0.000000 9.561800 0.000000
    CHANNELS 3 Yrotation Xrotation Zrotation
    JOINT Chest4
    {
     OFFSET 0.000000 9.552100 0.000000
     CHANNELS 3 Yrotation Xrotation Zrotation
     JOINT Neck
     {
      OFFSET 0.000000 14.453000 0.000000
      CHANNELS 3 Yrotation Xrotation Zrotation
      JOINT Head
      {
       OFFSET 0.000000 8.936500 -0.011300
       CHANNELS 3 Yrotation Xrotation Zrotation
       End Site
       {
        OFFSET 0.000000 17.073600 -0.006000
       }
      }
     }
     JOINT RightCollar
     {
      OFFSET -2.921100 9.558500 0.000000
      CHANNELS 3 Yrotation Xrotation Zrotation
      JOINT RightShoulder
      {
       OFFSET -13.519700 0.000000 0.000000
       CHANNELS 3 Yrotation Xrotation Zrotation
       JOINT RightElbow
       {
        OFFSET 0.000000 -29.696600 0.000000
        CHANNELS 3 Yrotation Xrotation Zrotation
        JOINT RightWrist
        {
         OFFSET 0.000000 -24.004700 0.000000
         CHANNELS 3 Yrotation Xrotation Zrotation
         End Site
         {
          OFFSET 0.000000 -17.728500 0.000000
         }
        }
       }
      }
     }
     JOINT LeftCollar
     {
      OFFSET 2.921100 9.558500 0.000000
      CHANNELS 3 Yrotation Xrotation Zrotation
      JOINT LeftShoulder
      {
       OFFSET 13.519700 0.000000 0.000000
       CHANNELS 3 Yrotation Xrotation Zrotation
       JOINT LeftElbow
       {
        OFFSET 0.000000 -29.696600 0.000000
        CHANNELS 3 Yrotation Xrotation Zrotation
        JOINT LeftWrist
        {
         OFFSET 0.000000 -24.004700 0.000000
         CHANNELS 3 Yrotation Xrotation Zrotation
         End Site
         {
          OFFSET 0.000000 -17.728500 0.000000
         }
        }
       }
      }
     }
    }
   }
  }
 }
 JOINT RightHip
 {
  OFFSET -7.771700 -0.012900 -0.001300
  CHANNELS 3 Yrotation Xrotation Zrotation
  JOINT RightKnee
  {
   OFFSET 0.000000 -40.869800 0.001200
   CHANNELS 3 Yrotation Xrotation Zrotation
   JOINT RightAnkle
   {
    OFFSET 0.000000 -39.717900 0.002100
    CHANNELS 3 Yrotation Xrotation Zrotation
    JOINT RightToe
    {
     OFFSET 0.000000 -4.965400 11.033500
     CHANNELS 3 Yrotation Xrotation Zrotation
     End Site
     {
      OFFSET 0.000000 -1.423100 5.872300
     }
    }
   }
  }
 }
 JOINT LeftHip
 {
  OFFSET 7.771700 -0.012900 -0.001300
  CHANNELS 3 Yrotation Xrotation Zrotation
  JOINT LeftKnee
  {
   OFFSET 0.000000 -40.869800 0.001200
   CHANNELS 3 Yrotation Xrotation Zrotation
   JOINT LeftAnkle
   {
    OFFSET 0.000000 -39.717900 0.002100
    CHANNELS 3 Yrotation Xrotation Zrotation
    JOINT LeftToe
    {
     OFFSET 0.000000 -4.965400 11.033500
     CHANNELS 3 Yrotation Xrotation Zrotation
     End Site
     {
      OFFSET 0.000000 -1.423100 5.872300
     }
    }
   }
  }
 }
}
MOTION
Frames: 8
Frame Time: 0.008333
0.000000 85.388000 0.000000 0.000000 -5.767877 0.000000 0.000000 11.653817 0.000000 0.000000 -5.885947 0.000000 0.000000 -0.000000 0.000000 0.000000 -0.000000 0.000000 0.000000 12.528835 0.000000 0.000000 0.711642 0.000000 0.000000 -0.000000 0.000000 0.000000 0.000000 -90.000000 0.000000 -2.309062 0.000000 0.000000 2.309062 0.000000 0.000000 -0.000000 0.000000 0.000000 -0.000000 90.000000 0.000000 -2.309062 0.000000 0.000000 2.309062 0.000000 0.000000 8.520406 0.000000 0.000000 1.905762 0.000000 -0.000000 -4.658285 0.000000 0.000000 -0.000000 0.000000 0.000000 8.520406 0.000000 0.000000 1.905762 0.000000 -0.000000 -4.658285 0.000000 0.000000 -0.000000 0.000000
-224.390107 57.777370 24.932536 174.642075 -48.571377 -3.216885 4.745559 21.478003 3.628271 2.454463 12.327442 1.922353 3.177135 15.371296 2.489283 2.466100 12.316676 1.917765 7.138607 20.216172 -0.556345 13.157363 2.093724 -3.110418 3.008247 1.598760 0.277636 -0.796976 -14.101362 -6.889349 -33.582821 -7.530159 101.735071 -17.429756 -19.513532 -2.301664 -10.472508 -0.859413 -0.262520 2.472946 -14.950290 9.858418 20.682773 -3.400784 -87.129933 21.064837 -21.643174 3.240348 6.191878 -23.528477 -1.123715 -43.511045 72.886304 -46.617460 4.158945 -13.799690 11.791813 0.018888 -0.162663 0.033061 -7.861947 -22.282391 8.150342 59.172738 77.649847 58.849006 6.245320 -14.925250 -19.557603 0.034762 0.102060 0.026657
-224.392550 57.775990 24.931139 174.674898 -48.580650 -3.221747 4.737778 21.473734 3.610116 2.498907 12.289220 1.902445 3.184409 15.366438 2.488095 2.479844 12.304819 1.910307 7.217123 20.317747 -0.423617 13.255017 2.273418 -2.882090 2.934631 1.603293 0.290078 -0.892009 -14.019469 -6.708974 -33.776723 -7.771026 102.111497 -17.413426 -19.533651 -2.253313 -10.526397 -0.840800 -0.257054 2.413110 -14.822009 9.977047 20.745886 -3.587569 -87.355957 21.258730 -21.644526 2.977362 6.188430 -23.517313 -1.139393 -43.532907 72.888412 -46.641168 4.153236 -13.798816 11.788395 0.020308 -0.167601 0.041258 -7.883909 -22.279859 8.138181 59.201523 77.656059 58.856712 6.248010 -14.924070 -19.542172 0.039400 0.102289 0.021530
-224.395554 57.774965 24.929026 174.697096 -48.597360 -3.214793 4.737776 21.476346 3.588331 2.531237 12.263486 1.883786 3.172794 15.377609 2.504625 2.516623 12.273792 1.864655 7.280172 20.404829 -0.290877 13.325608 2.424972 -2.650717 2.851779 1.609527 0.309475 -0.982360 -13.963085 -6.548159 -33.962757 -8.023427 102.488671 -17.389681 -19.546443 -2.239180 -10.582931 -0.818009 -0.242386 2.364786 -14.703041 10.083192 20.825409 -3.842513 -87.581088 21.439830 -21.631966 2.723748 6.193970 -23.496413 -1.152848 -43.552537 72.894704 -46.680677 4.150839 -13.809815 11.802485 0.009485 -0.170376 0.034161 -7.892394 -22.268944 8.115879 59.212747 77.662625 58.859115 6.246867 -14.923755 -19.535524 0.047690 0.101066 0.020565
-224.396118 57.772914 24.928107 174.708737 -48.608308 -3.215438 4.812545 21.422943 3.578491 2.508948 12.285646 1.891248 3.204947 15.353875 2.479259 2.519842 12.275949 1.871875 7.330842 20.477715 -0.159092 13.375010 2.549375 -2.419086 2.783112 1.630817 0.371687 -1.077316 -13.946146 -6.446787 -34.136394 -8.275349 102.872088 -17.357752 -19.556210 -2.252837 -10.640621 -0.789571 -0.213727 2.320701 -14.584669 10.176996 20.943801 -4.164957 -87.819402 21.622318 -21.599026 2.497881 6.199073 -23.481546 -1.150897 -43.563065 72.891932 -46.701563 4.142850 -13.817413 11.818827 0.003482 -0.166176 0.025300 -7.901296 -22.262486 8.111255 59.223703 77.669493 58.862494 6.255052 -14.921907 -19.533157 0.048889 0.101148 0.020315
-224.397044 57.770668 24.927323 174.725012 -48.619168 -3.218070 4.821495 21.420924 3.568502 2.540428 12.267545 1.869976 3.235385 15.332739 2.451328 2.498079 12.295066 1.923372 7.374768 20.527206 -0.084044 13.405656 2.648716 -2.191768 2.740322 1.630575 0.385007 -1.167326 -13.945427 -6.366356 -34.301549 -8.518833 103.264042 -17.319849 -19.567763 -2.284367 -10.672592 -0.780665 -0.218430 2.280068 -14.466704 10.256227 21.106302 -4.544910 -88.081747 21.820893 -21.544231 2.309670 6.201459 -23.465118 -1.149059 -43.568577 72.888173 -46.721372 4.133974 -13.825908 11.831760 -0.005745 -0.161177 0.026921 -7.919297 -22.255417 8.112182 59.230212 77.677084 58.853202 6.255206 -14.918880 -19.530442 0.063251 0.099412 0.023383
-224.399247 57.769216 24.925802 174.776481 -48.635492 -3.239780 4.805210 21.428254 3.550953 2.567744 12.252125 1.847726 3.248545 15.324357 2.437189 2.521117 12.278851 1.889972 7.399434 20.582638 0.066511 13.416951 2.728935 -1.971263 2.629434 1.600989 0.377590 -1.230563 -13.912117 -6.211722 -34.465833 -8.753658 103.657127 -17.280040 -19.579773 -2.321679 -10.735982 -0.729317 -0.150874 2.242248 -14.343361 10.321980 21.306303 -4.969737 -88.377193 22.040655 -21.478173 2.153814 6.183841 -23.440396 -1.155111 -43.580321 72.883118 -46.743315 4.128484 -13.830125 11.835441 -0.012556 -0.161083 0.034324 -7.953550 -22.243328 8.100211 59.240679 77.679197 58.848884 6.259081 -14.916200 -19.527236 0.062497 0.102125 0.026037
-224.401030 57.766805 24.925459 174.797761 -48.644305 -3.242586 4.829176 21.415687 3.533975 2.572320 12.250034 1.835180 3.241816 15.328582 2.451670 2.537216 12.268055 1.862700 7.409495 20.623930 0.160761 13.409089 2.797071 -1.760834 2.556392 1.572829 0.359079 -1.294666 -13.910142 -6.110642 -34.629179 -8.984294 104.041202 -17.239067 -19.586356 -2.357683 -10.776635 -0.702787 -0.124867 2.210519 -14.206879 10.376656 21.540026 -5.425754 -88.704268 22.277103 -21.402563 2.017448 6.177909 -23.428470 -1.164449 -43.565794 72.886319 -46.741676 4.130126 -13.833526 11.846842 -0.013893 -0.161321 0.026216 -7.972349 -22.236272 8.096790 59.242669 77.682486 58.834964 6.248637 -14.918215 -19.523309 0.067961 0.104294 0.029398
